<?xml version="1.0" encoding="UTF-8" standalone="no"?>
<svg
   xmlns:dc="http://purl.org/dc/elements/1.1/"
   xmlns:cc="http://creativecommons.org/ns#"
   xmlns:rdf="http://www.w3.org/1999/02/22-rdf-syntax-ns#"
   xmlns:svg="http://www.w3.org/2000/svg"
   xmlns="http://www.w3.org/2000/svg"
   viewBox="0 0 400 213.33333"
   height="213.33333"
   width="400"
   xml:space="preserve"
   id="svg2"
   version="1.1"><metadata
     id="metadata8"><rdf:RDF><cc:Work
         rdf:about=""><dc:format>image/svg+xml</dc:format><dc:type
           rdf:resource="http://purl.org/dc/dcmitype/StillImage" /></cc:Work></rdf:RDF></metadata><defs
     id="defs6"><linearGradient
       id="linearGradient30"
       spreadMethod="pad"
       gradientTransform="matrix(0,-28.845427,-28.845427,0,77.068169,156.74707)"
       gradientUnits="userSpaceOnUse"
       y2="0"
       x2="1"
       y1="0"
       x1="0"><stop
         id="stop24"
         offset="0"
         style="stop-opacity:1;stop-color:#ff4e00" /><stop
         id="stop26"
         offset="0.00000017"
         style="stop-opacity:1;stop-color:#ff4e00" /><stop
         id="stop28"
         offset="1"
         style="stop-opacity:1;stop-color:#ffbc11" /></linearGradient><linearGradient
       id="linearGradient52"
       spreadMethod="pad"
       gradientTransform="matrix(0,43.134689,43.134689,0,111.47573,0)"
       gradientUnits="userSpaceOnUse"
       y2="0"
       x2="1"
       y1="0"
       x1="0"><stop
         id="stop46"
         offset="0"
         style="stop-opacity:1;stop-color:#2a6ad1" /><stop
         id="stop48"
         offset="0.999999"
         style="stop-opacity:1;stop-color:#78b7e5" /><stop
         id="stop50"
         offset="1"
         style="stop-opacity:1;stop-color:#78b7e5" /></linearGradient><linearGradient
       id="linearGradient74"
       spreadMethod="pad"
       gradientTransform="matrix(0,-29.989202,-29.989202,0,62.964512,160)"
       gradientUnits="userSpaceOnUse"
       y2="0"
       x2="1"
       y1="0"
       x1="0"><stop
         id="stop68"
         offset="0"
         style="stop-opacity:1;stop-color:#ff4e00" /><stop
         id="stop70"
         offset="0.00000017"
         style="stop-opacity:1;stop-color:#ff4e00" /><stop
         id="stop72"
         offset="1"
         style="stop-opacity:1;stop-color:#ffbc11" /></linearGradient><linearGradient
       id="linearGradient96"
       spreadMethod="pad"
       gradientTransform="matrix(0,41.323608,41.323608,0,126.00869,3.3144095)"
       gradientUnits="userSpaceOnUse"
       y2="0"
       x2="1"
       y1="0"
       x1="0"><stop
         id="stop90"
         offset="0"
         style="stop-opacity:1;stop-color:#2a6ad1" /><stop
         id="stop92"
         offset="0.999999"
         style="stop-opacity:1;stop-color:#78b7e5" /><stop
         id="stop94"
         offset="1"
         style="stop-opacity:1;stop-color:#78b7e5" /></linearGradient><linearGradient
       id="linearGradient118"
       spreadMethod="pad"
       gradientTransform="matrix(28.52356,0,0,-28.52356,35.226444,144.06757)"
       gradientUnits="userSpaceOnUse"
       y2="0"
       x2="1"
       y1="0"
       x1="0"><stop
         id="stop112"
         offset="0"
         style="stop-opacity:1;stop-color:#ff4e00" /><stop
         id="stop114"
         offset="0.00000017"
         style="stop-opacity:1;stop-color:#ff4e00" /><stop
         id="stop116"
         offset="1"
         style="stop-opacity:1;stop-color:#ffbc11" /></linearGradient><linearGradient
       id="linearGradient140"
       spreadMethod="pad"
       gradientTransform="matrix(0,37.039627,37.039627,0,136.75551,12.378232)"
       gradientUnits="userSpaceOnUse"
       y2="0"
       x2="1"
       y1="0"
       x1="0"><stop
         id="stop134"
         offset="0"
         style="stop-opacity:1;stop-color:#2a6ad1" /><stop
         id="stop136"
         offset="0.999999"
         style="stop-opacity:1;stop-color:#78b7e5" /><stop
         id="stop138"
         offset="1"
         style="stop-opacity:1;stop-color:#78b7e5" /></linearGradient><linearGradient
       id="linearGradient162"
       spreadMethod="pad"
       gradientTransform="matrix(35.632164,0,0,-35.632164,19.766397,139.57179)"
       gradientUnits="userSpaceOnUse"
       y2="0"
       x2="1"
       y1="0"
       x1="0"><stop
         id="stop156"
         offset="0"
         style="stop-opacity:1;stop-color:#ff4e00" /><stop
         id="stop158"
         offset="0.00000017"
         style="stop-opacity:1;stop-color:#ff4e00" /><stop
         id="stop160"
         offset="1"
         style="stop-opacity:1;stop-color:#ffbc11" /></linearGradient><linearGradient
       id="linearGradient184"
       spreadMethod="pad"
       gradientTransform="matrix(41.368786,0,0,-41.368786,7.682035,130.93459)"
       gradientUnits="userSpaceOnUse"
       y2="0"
       x2="1"
       y1="0"
       x1="0"><stop
         id="stop178"
         offset="0"
         style="stop-opacity:1;stop-color:#ff4e00" /><stop
         id="stop180"
         offset="0.00000017"
         style="stop-opacity:1;stop-color:#ff4e00" /><stop
         id="stop182"
         offset="1"
         style="stop-opacity:1;stop-color:#ffbc11" /></linearGradient><linearGradient
       id="linearGradient206"
       spreadMethod="pad"
       gradientTransform="matrix(44.612022,0,0,-44.612022,0.8167313,118.14809)"
       gradientUnits="userSpaceOnUse"
       y2="0"
       x2="1"
       y1="0"
       x1="0"><stop
         id="stop200"
         offset="0"
         style="stop-opacity:1;stop-color:#ff4e00" /><stop
         id="stop202"
         offset="0.00000017"
         style="stop-opacity:1;stop-color:#ff4e00" /><stop
         id="stop204"
         offset="1"
         style="stop-opacity:1;stop-color:#ffbc11" /></linearGradient><linearGradient
       id="linearGradient228"
       spreadMethod="pad"
       gradientTransform="matrix(46.26598,0,0,-46.26598,0,101.74866)"
       gradientUnits="userSpaceOnUse"
       y2="0"
       x2="1"
       y1="0"
       x1="0"><stop
         id="stop222"
         offset="0"
         style="stop-opacity:1;stop-color:#ff4e00" /><stop
         id="stop224"
         offset="0.00000017"
         style="stop-opacity:1;stop-color:#ff4e00" /><stop
         id="stop226"
         offset="1"
         style="stop-opacity:1;stop-color:#ffbc11" /></linearGradient><linearGradient
       id="linearGradient250"
       spreadMethod="pad"
       gradientTransform="matrix(46.175514,0,0,-46.175514,5.1328897,81.388176)"
       gradientUnits="userSpaceOnUse"
       y2="0"
       x2="1"
       y1="0"
       x1="0"><stop
         id="stop244"
         offset="0"
         style="stop-opacity:1;stop-color:#ff4e00" /><stop
         id="stop246"
         offset="0.00000017"
         style="stop-opacity:1;stop-color:#ff4e00" /><stop
         id="stop248"
         offset="1"
         style="stop-opacity:1;stop-color:#ffbc11" /></linearGradient><linearGradient
       id="linearGradient272"
       spreadMethod="pad"
       gradientTransform="matrix(41.321407,0,0,-41.321407,18.386923,62.127991)"
       gradientUnits="userSpaceOnUse"
       y2="0"
       x2="1"
       y1="0"
       x1="0"><stop
         id="stop266"
         offset="0"
         style="stop-opacity:1;stop-color:#2a6ad1" /><stop
         id="stop268"
         offset="0.999998"
         style="stop-opacity:1;stop-color:#78b7e5" /><stop
         id="stop270"
         offset="1"
         style="stop-opacity:1;stop-color:#78b7e5" /></linearGradient><linearGradient
       id="linearGradient294"
       spreadMethod="pad"
       gradientTransform="matrix(32.067062,0,0,-32.067062,38.625816,44.933331)"
       gradientUnits="userSpaceOnUse"
       y2="0"
       x2="1"
       y1="0"
       x1="0"><stop
         id="stop288"
         offset="0"
         style="stop-opacity:1;stop-color:#2a6ad1" /><stop
         id="stop290"
         offset="0.999998"
         style="stop-opacity:1;stop-color:#78b7e5" /><stop
         id="stop292"
         offset="1"
         style="stop-opacity:1;stop-color:#78b7e5" /></linearGradient><linearGradient
       id="linearGradient316"
       spreadMethod="pad"
       gradientTransform="matrix(19.889149,0,0,-19.889149,63.280922,31.796593)"
       gradientUnits="userSpaceOnUse"
       y2="0"
       x2="1"
       y1="0"
       x1="0"><stop
         id="stop310"
         offset="0"
         style="stop-opacity:1;stop-color:#2a6ad1" /><stop
         id="stop312"
         offset="0.999998"
         style="stop-opacity:1;stop-color:#78b7e5" /><stop
         id="stop314"
         offset="1"
         style="stop-opacity:1;stop-color:#78b7e5" /></linearGradient><linearGradient
       id="linearGradient338"
       spreadMethod="pad"
       gradientTransform="matrix(0,44.855213,44.855213,0,93.577835,1.5486081)"
       gradientUnits="userSpaceOnUse"
       y2="0"
       x2="1"
       y1="0"
       x1="0"><stop
         id="stop332"
         offset="0"
         style="stop-opacity:1;stop-color:#2a6ad1" /><stop
         id="stop334"
         offset="0.999998"
         style="stop-opacity:1;stop-color:#78b7e5" /><stop
         id="stop336"
         offset="1"
         style="stop-opacity:1;stop-color:#78b7e5" /></linearGradient><linearGradient
       id="linearGradient360"
       spreadMethod="pad"
       gradientTransform="matrix(0,-26.373634,-26.373634,0,91.143227,149.90535)"
       gradientUnits="userSpaceOnUse"
       y2="0"
       x2="1"
       y1="0"
       x1="0"><stop
         id="stop354"
         offset="0"
         style="stop-opacity:1;stop-color:#ff4e00" /><stop
         id="stop356"
         offset="0.00000017"
         style="stop-opacity:1;stop-color:#ff4e00" /><stop
         id="stop358"
         offset="1"
         style="stop-opacity:1;stop-color:#ffbc11" /></linearGradient><clipPath
       id="clipPath370"
       clipPathUnits="userSpaceOnUse"><path
         id="path368"
         d="M 0,0 H 300 V 160 H 0 Z" /></clipPath></defs><g
     transform="matrix(1.3333333,0,0,-1.3333333,0,213.33333)"
     id="g10"><g
       id="g12"><g
         id="g14"><g
           id="g20"><g
             id="g22"><path
               id="path32"
               style="fill:url(#linearGradient30);stroke:none"
               d="m 78.715,129.216 c 0.819,-0.172 1.645,-0.369 2.483,-0.592 v 0 c 0.834,-0.22 1.663,-0.46 2.49,-0.722 v 0 l -6.853,26.768 c -1.056,0.383 -2.118,0.748 -3.185,1.095 v 0 c -1.074,0.348 -2.141,0.676 -3.203,0.982 v 0 z" /></g></g></g></g><g
       id="g34"><g
         id="g36"><g
           id="g42"><g
             id="g44"><path
               id="path54"
               style="fill:url(#linearGradient52);stroke:none"
               d="m 113.045,0 h 0.141 c 1.264,0.001 2.518,0.034 3.759,0.104 v 0 c 1.281,0.075 2.533,0.186 3.759,0.33 v 0 L 107.753,42.82 c -0.88,-0.011 -1.781,0.007 -2.708,0.059 v 0 c -0.923,0.05 -1.856,0.139 -2.798,0.255 v 0 z" /></g></g></g></g><g
       id="g56"><g
         id="g58"><g
           id="g64"><g
             id="g66"><path
               id="path76"
               style="fill:url(#linearGradient74);stroke:none"
               d="m 52.524,160 16.13,-29.877 c 1.531,0.066 3.119,0.028 4.751,-0.113 v 0 l -14.476,29.289 c -2.171,0.327 -4.306,0.56 -6.405,0.701 z" /></g></g></g></g><g
       id="g78"><g
         id="g80"><g
           id="g86"><g
             id="g88"><path
               id="path98"
               style="fill:url(#linearGradient96);stroke:none"
               d="M 113.245,43.363 132.898,3.315 c 2.071,0.769 4.026,1.663 5.874,2.671 v 0 l -20.988,38.652 c -1.418,-0.542 -2.933,-0.969 -4.539,-1.275" /></g></g></g></g><g
       id="g100"><g
         id="g102"><g
           id="g108"><g
             id="g110"><path
               id="path120"
               style="fill:url(#linearGradient118);stroke:none"
               d="m 35.226,158.869 24.31,-30.559 c 1.335,0.515 2.742,0.924 4.214,1.223 v 0 l -22.467,30.292 c -2.072,-0.214 -4.092,-0.533 -6.057,-0.956" /></g></g></g></g><g
       id="g122"><g
         id="g124"><g
           id="g130"><g
             id="g132"><path
               id="path142"
               style="fill:url(#linearGradient140);stroke:none"
               d="m 122.067,46.792 25.471,-34.413 c 1.412,1.353 2.713,2.796 3.906,4.324 v 0 l -26.061,32.715 c -1.005,-0.969 -2.111,-1.85 -3.316,-2.626" /></g></g></g></g><g
       id="g144"><g
         id="g146"><g
           id="g152"><g
             id="g154"><path
               id="path164"
               style="fill:url(#linearGradient162);stroke:none"
               d="m 19.767,152.643 32.291,-28.998 c 1.021,0.972 2.136,1.837 3.341,2.599 v 0 l -30.391,29.254 c -1.827,-0.838 -3.574,-1.79 -5.241,-2.855" /></g></g></g></g><g
       id="g166"><g
         id="g168"><g
           id="g174"><g
             id="g176"><path
               id="path186"
               style="fill:url(#linearGradient184);stroke:none"
               d="m 7.682,140.792 39.247,-24.629 c 0.594,1.408 1.304,2.719 2.122,3.929 v 0 l -37.543,25.614 c -1.381,-1.522 -2.664,-3.161 -3.826,-4.914" /></g></g></g></g><g
       id="g188"><g
         id="g190"><g
           id="g196"><g
             id="g198"><path
               id="path208"
               style="fill:url(#linearGradient206);stroke:none"
               d="m 0.816,123.215 44.027,-17.062 c 0.063,1.779 0.26,3.477 0.585,5.085 v 0 L 2.556,130.144 c -0.721,-2.199 -1.305,-4.509 -1.74,-6.929" /></g></g></g></g><g
       id="g210"><g
         id="g212"><g
           id="g218"><g
             id="g220"><path
               id="path230"
               style="fill:url(#linearGradient228);stroke:none"
               d="m 0.326,105.025 c 0.151,-1.436 0.349,-2.88 0.581,-4.327 v 0 l 45.359,-6.436 c -0.258,0.994 -0.481,1.986 -0.669,2.975 v 0 c -0.192,0.989 -0.346,1.957 -0.466,2.911 v 0 L 0,109.236 c 0.066,-1.381 0.172,-2.786 0.326,-4.211" /></g></g></g></g><g
       id="g232"><g
         id="g234"><g
           id="g240"><g
             id="g242"><path
               id="path252"
               style="fill:url(#linearGradient250);stroke:none"
               d="m 5.133,84.479 c 1.114,-3.126 2.396,-6.245 3.836,-9.345 v 0 l 42.339,6.323 c -1.081,2.04 -2.04,4.105 -2.868,6.185 v 0 z" /></g></g></g></g><g
       id="g254"><g
         id="g256"><g
           id="g262"><g
             id="g264"><path
               id="path274"
               style="fill:url(#linearGradient272);stroke:none"
               d="m 18.387,58.441 c 2.048,-3.069 4.24,-6.078 6.56,-9.011 v 0 l 34.762,19.506 c -1.572,1.903 -3.047,3.87 -4.414,5.89 v 0 z" /></g></g></g></g><g
       id="g276"><g
         id="g278"><g
           id="g284"><g
             id="g286"><path
               id="path296"
               style="fill:url(#linearGradient294);stroke:none"
               d="m 38.626,34.421 c 2.738,-2.619 5.576,-5.122 8.49,-7.503 v 0 l 23.577,31.017 c -1.911,1.577 -3.76,3.256 -5.528,5.014 v 0 z" /></g></g></g></g><g
       id="g298"><g
         id="g300"><g
           id="g306"><g
             id="g308"><path
               id="path318"
               style="fill:url(#linearGradient316);stroke:none"
               d="m 63.281,15.505 c 3.063,-1.847 6.162,-3.546 9.289,-5.088 v 0 l 10.6,39.095 c -2.065,1.104 -4.099,2.328 -6.094,3.664 v 0 z" /></g></g></g></g><g
       id="g320"><g
         id="g322"><g
           id="g328"><g
             id="g330"><path
               id="path340"
               style="fill:url(#linearGradient338);stroke:none"
               d="M 89.113,3.81 C 92.105,2.894 95.09,2.138 98.042,1.549 v 0 l -2.13,42.839 c -2.021,0.542 -4.046,1.215 -6.07,2.016 v 0 z" /></g></g></g></g><g
       id="g342"><g
         id="g344"><g
           id="g350"><g
             id="g352"><path
               id="path362"
               style="fill:url(#linearGradient360);stroke:none"
               d="m 89.086,125.893 c 1.662,-0.714 3.305,-1.504 4.921,-2.362 v 0 l 0.198,23.17 c -2.016,1.127 -4.057,2.196 -6.124,3.205 v 0 z" /></g></g></g></g><g
       id="g364"><g
         clip-path="url(#clipPath370)"
         id="g366"><g
           transform="translate(299.6078,75.077)"
           id="g372"><path
             id="path374"
             style="fill:#fb6616;fill-opacity:1;fill-rule:nonzero;stroke:none"
             d="m 0,0 h -211.823 c -0.216,0 -0.392,0.119 -0.392,0.266 v 0.297 c 0,0.148 0.176,0.267 0.392,0.267 H 0 c 0.217,0 0.392,-0.119 0.392,-0.267 V 0.266 C 0.392,0.119 0.217,0 0,0" /></g><g
           transform="translate(268.4562,115.6037)"
           id="g376"><path
             id="path378"
             style="fill:#2a6ad1;fill-opacity:1;fill-rule:nonzero;stroke:none"
             d="m 0,0 c 0.142,0.427 0.491,0.641 1.047,0.641 h 4.057 c 1.609,0 2.848,-0.677 3.716,-2.029 l 6.92,-10.657 6.898,10.657 c 0.868,1.339 2.107,2.015 3.716,2.029 h 4.079 c 0.556,0 0.904,-0.214 1.047,-0.641 0.043,-0.128 0.064,-0.256 0.064,-0.384 0,-0.314 -0.121,-0.648 -0.363,-1.004 L 19.755,-19.05 v -8.97 c 0,-0.555 -0.196,-1.022 -0.587,-1.399 -0.392,-0.377 -0.865,-0.566 -1.42,-0.566 h -4.016 c -0.555,0 -1.032,0.189 -1.43,0.566 -0.399,0.377 -0.599,0.844 -0.599,1.399 v 8.97 L 0.299,-1.388 c -0.242,0.356 -0.363,0.69 -0.363,1.004 0,0.128 0.021,0.256 0.064,0.384 m -34.473,-3.396 v 2.008 c 0,0.583 0.192,1.068 0.577,1.452 0.384,0.385 0.868,0.577 1.452,0.577 h 27.102 c 0.584,0 1.068,-0.192 1.452,-0.577 0.384,-0.384 0.577,-0.869 0.577,-1.452 v -2.008 c 0,-0.583 -0.193,-1.064 -0.577,-1.441 -0.384,-0.378 -0.868,-0.566 -1.452,-0.566 h -9.525 V -28.02 c 0,-0.555 -0.196,-1.022 -0.588,-1.399 -0.391,-0.377 -0.865,-0.566 -1.42,-0.566 h -4.036 c -0.556,0 -1.029,0.189 -1.42,0.566 -0.392,0.377 -0.588,0.844 -0.588,1.399 v 22.617 h -9.525 c -0.584,0 -1.068,0.188 -1.452,0.566 -0.385,0.377 -0.577,0.858 -0.577,1.441 M -46.097,-28.02 v 26.632 c 0,0.555 0.199,1.032 0.598,1.431 0.399,0.398 0.876,0.598 1.431,0.598 h 3.972 c 0.584,0 1.072,-0.2 1.463,-0.598 0.392,-0.399 0.588,-0.876 0.588,-1.431 v -26.589 c 0,-0.556 -0.203,-1.029 -0.609,-1.42 -0.406,-0.392 -0.886,-0.588 -1.442,-0.588 h -3.972 c -0.555,0 -1.032,0.189 -1.431,0.566 -0.399,0.377 -0.598,0.844 -0.598,1.399 m -33.814,1.654 c -2.641,2.527 -3.961,6.425 -3.961,11.694 0,5.269 1.33,9.167 3.992,11.694 2.662,2.526 6.655,3.79 11.978,3.79 h 4.8 c 3.257,0 6.137,-0.84 8.641,-2.519 2.504,-1.68 3.756,-3.979 3.756,-6.896 0,-0.842 -0.258,-1.444 -0.772,-1.808 -0.515,-0.364 -1.015,-0.545 -1.5,-0.545 h -2.625 c -1.353,0 -2.405,0.783 -3.155,2.349 -1.053,2.25 -2.805,3.375 -5.253,3.375 h -3.802 c -3.118,0 -5.232,-0.669 -6.343,-2.006 -1.11,-1.337 -1.665,-3.811 -1.665,-7.423 0,-3.613 0.555,-6.091 1.665,-7.435 1.111,-1.344 3.225,-2.015 6.343,-2.015 h 4.25 c 2.449,0 4.193,1.123 5.232,3.37 0.727,1.568 1.752,2.353 3.076,2.353 h 2.542 c 0.256,0 0.53,-0.053 0.822,-0.159 0.292,-0.106 0.59,-0.354 0.897,-0.742 0.306,-0.389 0.459,-0.873 0.459,-1.452 0,-2.924 -1.239,-5.225 -3.716,-6.9 -2.478,-1.677 -5.332,-2.515 -8.564,-2.515 h -5.211 c -5.283,0 -9.245,1.263 -11.886,3.79 m -53.468,11.675 c 0,5.288 1.321,9.194 3.962,11.718 2.641,2.523 6.603,3.785 11.885,3.785 h 4.763 c 3.146,0 5.983,-0.751 8.51,-2.254 2.528,-1.502 3.791,-3.378 3.791,-5.627 0,-0.84 -0.249,-1.442 -0.747,-1.805 -0.499,-0.362 -0.983,-0.544 -1.452,-0.544 h -2.542 c -1.224,0 -2.186,0.669 -2.883,2.007 -0.755,1.453 -2.563,2.179 -5.425,2.179 h -3.801 c -3.118,0 -5.233,-0.671 -6.343,-2.012 -1.111,-1.341 -1.666,-3.824 -1.666,-7.447 0,-3.545 0.498,-6.001 1.495,-7.369 0.996,-1.368 2.777,-2.051 5.339,-2.051 h 4.378 c 2.307,0 3.948,0.427 4.923,1.285 0.975,0.857 1.477,2.087 1.506,3.691 h -4.827 c -0.555,0 -1.029,0.198 -1.42,0.595 -0.392,0.398 -0.587,0.878 -0.587,1.442 v 1.691 c 0,0.564 0.195,1.044 0.587,1.441 0.391,0.398 0.865,0.597 1.42,0.597 h 10.721 c 0.555,0 1.029,-0.196 1.42,-0.587 0.392,-0.392 0.588,-0.866 0.588,-1.42 v -2.371 c 0,-4.002 -1.196,-7.069 -3.588,-9.205 -2.392,-2.136 -5.902,-3.204 -10.529,-3.204 h -4.805 c -4.727,0 -8.355,1.273 -10.882,3.818 -2.527,2.546 -3.791,6.428 -3.791,11.647 m -11.49,-13.329 v 26.632 c 0,0.555 0.199,1.032 0.598,1.431 0.399,0.398 0.876,0.598 1.431,0.598 h 3.972 c 0.584,0 1.071,-0.2 1.463,-0.598 0.392,-0.399 0.588,-0.876 0.588,-1.431 v -26.589 c 0,-0.556 -0.203,-1.029 -0.609,-1.42 -0.406,-0.392 -0.886,-0.588 -1.442,-0.588 h -3.972 c -0.555,0 -1.032,0.189 -1.431,0.566 -0.399,0.377 -0.598,0.844 -0.598,1.399 m -28.143,3.802 h 12.216 c 1.111,0 1.954,0.327 2.531,0.982 0.577,0.655 0.865,1.552 0.865,2.691 0,1.139 -0.292,2.036 -0.876,2.691 -0.584,0.654 -1.423,0.983 -2.52,0.983 h -12.216 z m 0,13.113 h 11.426 c 0.897,0 1.616,0.261 2.157,0.784 0.541,0.522 0.812,1.254 0.812,2.195 0,0.941 -0.271,1.676 -0.812,2.206 -0.541,0.53 -1.26,0.795 -2.157,0.795 h -11.426 z m -8.051,9.717 c 0,0.555 0.199,1.032 0.597,1.431 0.399,0.398 0.876,0.598 1.431,0.598 h 17.364 c 1.95,0 3.726,-0.268 5.328,-0.804 1.602,-0.536 2.965,-1.477 4.09,-2.824 1.125,-1.347 1.687,-3.015 1.687,-5.003 0,-2.192 -0.961,-4.071 -2.883,-5.637 2.748,-1.46 4.115,-3.835 4.101,-7.127 0,-2.934 -1.093,-5.206 -3.279,-6.816 -2.186,-1.61 -4.866,-2.415 -8.041,-2.415 h -18.367 c -0.555,0 -1.032,0.196 -1.431,0.588 -0.398,0.391 -0.597,0.864 -0.597,1.42 z" /></g><g
           transform="translate(129.3591,62.2311)"
           id="g380"><path
             id="path382"
             style="fill:#2a6ad1;fill-opacity:1;fill-rule:evenodd;stroke:none"
             d="m 0,0 h -3.739 v 3.558 h -1.628 v -8.442 h 1.628 v 3.558 H 0 V -4.884 H 1.628 V 3.558 H 0 Z" /></g><g
           transform="translate(134.424,60.9052)"
           id="g384"><path
             id="path386"
             style="fill:#2a6ad1;fill-opacity:1;fill-rule:evenodd;stroke:none"
             d="M 0,0 H 2.653 V 1.326 H 0 v 2.231 h 3.015 v 1.327 h -4.643 v -8.442 h 4.703 v 1.327 H 0 Z" /></g><g
           transform="translate(141.8893,60.6035)"
           id="g388"><path
             id="path390"
             style="fill:#2a6ad1;fill-opacity:1;fill-rule:evenodd;stroke:none"
             d="M 0,0 1.266,3.063 2.52,0 Z m 0.506,5.186 -3.75,-8.442 h 1.893 l 0.772,1.809 H 3.099 L 3.883,-3.256 H 5.777 L 2.026,5.186 Z" /></g><g
           transform="translate(147.7263,64.4627)"
           id="g392"><path
             id="path394"
             style="fill:#2a6ad1;fill-opacity:1;fill-rule:evenodd;stroke:none"
             d="M 0,0 H 2.171 V -7.115 H 3.799 V 0 H 5.97 V 1.326 H 0 Z" /></g><path
           id="path396"
           style="fill:#2a6ad1;fill-opacity:1;fill-rule:evenodd;stroke:none"
           d="m 155.276,57.347 h 1.628 v 8.442 h -1.628 z" /><g
           transform="translate(164.3812,60.4829)"
           id="g398"><path
             id="path400"
             style="fill:#2a6ad1;fill-opacity:1;fill-rule:evenodd;stroke:none"
             d="M 0,0 -4.643,5.306 H -5.668 V -3.136 H -4.04 V 2.17 L 0.603,-3.136 H 1.628 V 5.306 H 0 Z" /></g><g
           transform="translate(172.1237,64.4627)"
           id="g402"><path
             id="path404"
             style="fill:#2a6ad1;fill-opacity:1;fill-rule:evenodd;stroke:none"
             d="m 0,0 c 0.844,0 1.52,-0.261 2.026,-0.784 l 1.025,1.025 c -0.804,0.804 -1.849,1.206 -3.135,1.206 -1.287,0 -2.332,-0.402 -3.136,-1.206 -0.804,-0.804 -1.206,-1.849 -1.206,-3.136 0,-1.286 0.402,-2.331 1.206,-3.135 0.804,-0.804 1.849,-1.206 3.136,-1.206 1.286,0 2.331,0.402 3.135,1.206 v 3.618 H -0.084 V -3.739 H 1.423 V -5.463 C 1.013,-5.68 0.538,-5.789 0,-5.789 c -0.812,0 -1.471,0.269 -1.978,0.808 -0.506,0.539 -0.76,1.234 -0.76,2.086 0,0.853 0.254,1.548 0.76,2.087 C -1.471,-0.27 -0.812,0 0,0" /></g><g
           transform="translate(192.9435,60.6035)"
           id="g406"><path
             id="path408"
             style="fill:#2a6ad1;fill-opacity:1;fill-rule:evenodd;stroke:none"
             d="M 0,0 1.266,3.063 2.521,0 Z m 0.506,5.186 -3.75,-8.442 h 1.893 l 0.772,1.809 H 3.099 L 3.883,-3.256 H 5.777 L 2.026,5.186 Z" /></g><g
           transform="translate(203.4176,62.4244)"
           id="g410"><path
             id="path412"
             style="fill:#2a6ad1;fill-opacity:1;fill-rule:evenodd;stroke:none"
             d="m 0,0 c -0.197,-0.209 -0.456,-0.313 -0.778,-0.313 h -0.904 v 2.291 h 0.904 C -0.456,1.978 -0.197,1.874 0,1.665 0.197,1.456 0.296,1.178 0.296,0.832 0.296,0.487 0.197,0.209 0,0 m -0.778,3.365 h -2.593 v -8.442 h 1.689 V -1.7 h 0.904 c 0.828,0 1.496,0.229 2.002,0.687 0.507,0.458 0.76,1.074 0.76,1.845 0,0.772 -0.253,1.387 -0.76,1.846 C 0.718,3.136 0.05,3.365 -0.778,3.365" /></g><g
           transform="translate(210.4608,62.4244)"
           id="g414"><path
             id="path416"
             style="fill:#2a6ad1;fill-opacity:1;fill-rule:evenodd;stroke:none"
             d="m 0,0 c -0.197,-0.209 -0.456,-0.313 -0.778,-0.313 h -0.904 v 2.291 h 0.904 C -0.456,1.978 -0.197,1.874 0,1.665 0.197,1.456 0.296,1.178 0.296,0.832 0.296,0.487 0.197,0.209 0,0 m -0.778,3.365 h -2.593 v -8.442 h 1.689 V -1.7 h 0.904 c 0.828,0 1.496,0.229 2.002,0.687 0.506,0.458 0.76,1.074 0.76,1.845 0,0.772 -0.254,1.387 -0.76,1.846 C 0.718,3.136 0.05,3.365 -0.778,3.365" /></g><g
           transform="translate(215.7608,65.789)"
           id="g418"><path
             id="path420"
             style="fill:#2a6ad1;fill-opacity:1;fill-rule:evenodd;stroke:none"
             d="m 0,0 h -1.628 v -8.442 h 4.583 v 1.327 H 0 Z" /></g><path
           id="path422"
           style="fill:#2a6ad1;fill-opacity:1;fill-rule:evenodd;stroke:none"
           d="m 220.284,57.347 h 1.628 v 8.442 h -1.628 z" /><g
           transform="translate(226.4823,60.6035)"
           id="g424"><path
             id="path426"
             style="fill:#2a6ad1;fill-opacity:1;fill-rule:evenodd;stroke:none"
             d="M 0,0 1.266,3.063 2.521,0 Z m 0.507,5.186 -3.751,-8.442 h 1.893 l 0.772,1.809 H 3.099 L 3.883,-3.256 H 5.777 L 2.026,5.186 Z" /></g><g
           transform="translate(239.254,60.4829)"
           id="g428"><path
             id="path430"
             style="fill:#2a6ad1;fill-opacity:1;fill-rule:evenodd;stroke:none"
             d="M 0,0 -4.643,5.306 H -5.668 V -3.136 H -4.04 V 2.17 L 0.603,-3.136 H 1.628 V 5.306 H 0 Z" /></g><g
           transform="translate(246.9961,64.4627)"
           id="g432"><path
             id="path434"
             style="fill:#2a6ad1;fill-opacity:1;fill-rule:evenodd;stroke:none"
             d="m 0,0 c 0.844,0 1.52,-0.261 2.026,-0.784 l 1.025,1.025 c -0.804,0.804 -1.849,1.206 -3.135,1.206 -1.287,0 -2.332,-0.402 -3.136,-1.206 -0.804,-0.804 -1.206,-1.849 -1.206,-3.136 0,-1.286 0.402,-2.331 1.206,-3.135 0.804,-0.804 1.849,-1.206 3.136,-1.206 1.286,0 2.331,0.402 3.135,1.206 L 2.026,-5.017 C 1.512,-5.532 0.836,-5.789 0,-5.789 c -0.812,0 -1.471,0.269 -1.978,0.808 -0.506,0.539 -0.759,1.234 -0.759,2.086 0,0.853 0.253,1.548 0.759,2.087 C -1.471,-0.27 -0.812,0 0,0" /></g><g
           transform="translate(253.2431,60.9052)"
           id="g436"><path
             id="path438"
             style="fill:#2a6ad1;fill-opacity:1;fill-rule:evenodd;stroke:none"
             d="M 0,0 H 2.653 V 1.326 H 0 v 2.231 h 3.015 v 1.327 h -4.643 v -8.442 h 4.704 v 1.327 H 0 Z" /></g><g
           transform="translate(264.8149,62.4244)"
           id="g440"><path
             id="path442"
             style="fill:#2a6ad1;fill-opacity:1;fill-rule:evenodd;stroke:none"
             d="m 0,0 c -0.197,-0.209 -0.456,-0.313 -0.778,-0.313 h -1.025 v 2.291 h 1.025 C -0.456,1.978 -0.197,1.874 0,1.665 0.197,1.456 0.296,1.178 0.296,0.832 0.296,0.487 0.197,0.209 0,0 m 1.586,-0.585 c 0.265,0.398 0.398,0.871 0.398,1.417 0,0.772 -0.254,1.387 -0.76,1.846 C 0.718,3.136 0.05,3.365 -0.778,3.365 h -2.713 v -8.442 h 1.688 V -1.7 h 0.699 L 0.573,-5.077 H 2.43 l -1.954,3.606 c 0.475,0.192 0.844,0.488 1.11,0.886" /></g><g
           transform="translate(270.2357,60.9052)"
           id="g444"><path
             id="path446"
             style="fill:#2a6ad1;fill-opacity:1;fill-rule:evenodd;stroke:none"
             d="M 0,0 H 2.653 V 1.326 H 0 v 2.231 h 3.015 v 1.327 h -4.643 v -8.442 h 4.703 v 1.327 H 0 Z" /></g><g
           transform="translate(278.3097,62.4244)"
           id="g448"><path
             id="path450"
             style="fill:#2a6ad1;fill-opacity:1;fill-rule:evenodd;stroke:none"
             d="m 0,0 c -0.197,-0.209 -0.456,-0.313 -0.778,-0.313 h -0.904 v 2.291 h 0.904 C -0.456,1.978 -0.197,1.874 0,1.665 0.197,1.456 0.296,1.178 0.296,0.832 0.296,0.487 0.197,0.209 0,0 m -0.778,3.365 h -2.593 v -8.442 h 1.689 V -1.7 h 0.904 c 0.828,0 1.496,0.229 2.002,0.687 0.507,0.458 0.76,1.074 0.76,1.845 0,0.772 -0.253,1.387 -0.76,1.846 C 0.718,3.136 0.05,3.365 -0.778,3.365" /></g><g
           transform="translate(283.538,60.6035)"
           id="g452"><path
             id="path454"
             style="fill:#2a6ad1;fill-opacity:1;fill-rule:evenodd;stroke:none"
             d="M 0,0 1.266,3.063 2.521,0 Z m 0.506,5.186 -3.75,-8.442 h 1.893 l 0.772,1.809 H 3.1 L 3.883,-3.256 H 5.777 L 2.026,5.186 Z" /></g><path
           id="path456"
           style="fill:#2a6ad1;fill-opacity:1;fill-rule:evenodd;stroke:none"
           d="m 290.641,57.347 h 1.628 v 8.442 h -1.628 z" /><g
           transform="translate(297.5695,62.4244)"
           id="g458"><path
             id="path460"
             style="fill:#2a6ad1;fill-opacity:1;fill-rule:evenodd;stroke:none"
             d="m 0,0 c -0.197,-0.209 -0.456,-0.313 -0.778,-0.313 h -1.025 v 2.291 h 1.025 C -0.456,1.978 -0.197,1.874 0,1.665 0.197,1.456 0.296,1.178 0.296,0.832 0.296,0.487 0.197,0.209 0,0 m 0.477,-1.471 c 0.474,0.192 0.844,0.488 1.109,0.886 0.265,0.398 0.398,0.871 0.398,1.417 0,0.772 -0.253,1.387 -0.76,1.846 C 0.718,3.136 0.05,3.365 -0.778,3.365 h -2.713 v -8.442 h 1.688 V -1.7 h 0.7 L 0.573,-5.077 H 2.43 Z" /></g><g
           transform="translate(182.5483,62.5069)"
           id="g462"><path
             id="path464"
             style="fill:#2a6ad1;fill-opacity:1;fill-rule:evenodd;stroke:none"
             d="m 0,0 c -0.517,0 -0.939,-0.421 -0.939,-0.939 0,-0.517 0.422,-0.938 0.939,-0.938 0.517,0 0.939,0.421 0.939,0.938 C 0.939,-0.421 0.517,0 0,0" /></g><g
           transform="translate(116.6188,62.5069)"
           id="g466"><path
             id="path468"
             style="fill:#2a6ad1;fill-opacity:1;fill-rule:evenodd;stroke:none"
             d="m 0,0 c -0.517,0 -0.939,-0.421 -0.939,-0.939 0,-0.517 0.422,-0.938 0.939,-0.938 0.517,0 0.939,0.421 0.939,0.938 C 0.939,-0.421 0.517,0 0,0" /></g><g
           transform="translate(90.6369,60.6035)"
           id="g470"><path
             id="path472"
             style="fill:#2a6ad1;fill-opacity:1;fill-rule:evenodd;stroke:none"
             d="M 0,0 1.266,3.063 2.521,0 Z m 0.507,5.186 -3.751,-8.442 h 1.894 l 0.771,1.809 H 3.1 L 3.884,-3.256 H 5.777 L 2.026,5.186 Z" /></g><g
           transform="translate(106.5462,64.4627)"
           id="g474"><path
             id="path476"
             style="fill:#2a6ad1;fill-opacity:1;fill-rule:evenodd;stroke:none"
             d="m 0,0 c 0.844,0 1.52,-0.261 2.026,-0.784 l 1.025,1.025 c -0.804,0.804 -1.849,1.206 -3.135,1.206 -1.287,0 -2.332,-0.402 -3.136,-1.206 -0.804,-0.804 -1.206,-1.849 -1.206,-3.136 0,-1.286 0.402,-2.331 1.206,-3.135 0.804,-0.804 1.849,-1.206 3.136,-1.206 1.286,0 2.331,0.402 3.135,1.206 L 2.026,-5.017 C 1.512,-5.532 0.836,-5.789 0,-5.789 c -0.812,0 -1.471,0.269 -1.978,0.808 -0.506,0.539 -0.759,1.234 -0.759,2.086 0,0.853 0.253,1.548 0.759,2.087 C -1.471,-0.27 -0.812,0 0,0" /></g><g
           transform="translate(97.0447,55.5265)"
           id="g478"><path
             id="path480"
             style="fill:#2a6ad1;fill-opacity:1;fill-rule:nonzero;stroke:none"
             d="M 0,0 3.851,12.083 H 5.076 L 1.225,0 Z" /></g></g></g></g></svg>